<svg width="64" height="64" viewBox="0 0 64 64" fill="none" xmlns="http://www.w3.org/2000/svg">
<path d="M37.5444 4C37.9679 4.00001 38.3804 4.13442 38.7225 4.38385C39.0647 4.63328 39.3189 4.98488 39.4484 5.388L41.6484 12.224C42.5724 12.676 43.4564 13.184 44.3004 13.756L51.3244 12.244C51.7386 12.1556 52.1701 12.2009 52.5568 12.3734C52.9436 12.5459 53.2656 12.8368 53.4764 13.204L59.0204 22.8C59.2321 23.167 59.3218 23.5918 59.2765 24.0131C59.2312 24.4344 59.0533 24.8304 58.7684 25.144L53.9484 30.464C54.0186 31.4841 54.0186 32.5079 53.9484 33.528L58.7684 38.856C59.0533 39.1696 59.2312 39.5656 59.2765 39.9869C59.3218 40.4082 59.2321 40.833 59.0204 41.2L53.4764 50.8C53.265 51.1665 52.9427 51.4565 52.556 51.6283C52.1694 51.8001 51.7382 51.8448 51.3244 51.756L44.3004 50.244C43.4604 50.812 42.5724 51.324 41.6524 51.776L39.4484 58.612C39.3189 59.0151 39.0647 59.3667 38.7225 59.6161C38.3804 59.8656 37.9679 60 37.5444 60H26.4564C26.033 60 25.6205 59.8656 25.2783 59.6161C24.9362 59.3667 24.682 59.0151 24.5524 58.612L22.3564 51.78C21.4349 51.3294 20.5461 50.8148 19.6964 50.24L12.6764 51.756C12.2623 51.8444 11.8308 51.7991 11.444 51.6266C11.0573 51.4541 10.7353 51.1632 10.5244 50.796L4.98043 41.2C4.76873 40.833 4.67906 40.4082 4.72435 39.9869C4.76964 39.5656 4.94755 39.1696 5.23243 38.856L10.0524 33.528C9.98261 32.5105 9.98261 31.4895 10.0524 30.472L5.23243 25.144C4.94755 24.8304 4.76964 24.4344 4.72435 24.0131C4.67906 23.5918 4.76873 23.167 4.98043 22.8L10.5244 13.2C10.7359 12.8335 11.0581 12.5435 11.4448 12.3717C11.8315 12.1999 12.2627 12.1552 12.6764 12.244L19.6964 13.76C20.5444 13.188 21.4324 12.672 22.3564 12.22L24.5564 5.388C24.6856 4.98618 24.9385 4.63551 25.2791 4.3862C25.6197 4.13689 26.0304 4.0017 26.4524 4H37.5404H37.5444ZM36.0804 8H27.9204L25.6484 15.068L24.1164 15.816C23.3633 16.1845 22.6363 16.6042 21.9404 17.072L20.5244 18.032L13.2604 16.464L9.18043 23.536L14.1604 29.048L14.0404 30.744C13.983 31.5803 13.983 32.4197 14.0404 33.256L14.1604 34.952L9.17243 40.464L13.2564 47.536L20.5204 45.972L21.9364 46.928C22.6323 47.3958 23.3593 47.8154 24.1124 48.184L25.6444 48.932L27.9204 56H36.0884L38.3684 48.928L39.8964 48.184C40.6487 47.8163 41.3745 47.3966 42.0684 46.928L43.4804 45.972L50.7484 47.536L54.8284 40.464L49.8444 34.952L49.9644 33.256C50.0221 32.4183 50.0221 31.5777 49.9644 30.74L49.8444 29.044L54.8324 23.536L50.7484 16.464L43.4804 18.024L42.0684 17.072C41.3746 16.6033 40.6488 16.1836 39.8964 15.816L38.3684 15.072L36.0844 8H36.0804ZM32.0004 20C35.183 20 38.2353 21.2643 40.4857 23.5147C42.7362 25.7652 44.0004 28.8174 44.0004 32C44.0004 35.1826 42.7362 38.2348 40.4857 40.4853C38.2353 42.7357 35.183 44 32.0004 44C28.8178 44 25.7656 42.7357 23.5152 40.4853C21.2647 38.2348 20.0004 35.1826 20.0004 32C20.0004 28.8174 21.2647 25.7652 23.5152 23.5147C25.7656 21.2643 28.8178 20 32.0004 20ZM32.0004 24C29.8787 24 27.8439 24.8429 26.3436 26.3431C24.8433 27.8434 24.0004 29.8783 24.0004 32C24.0004 34.1217 24.8433 36.1566 26.3436 37.6569C27.8439 39.1571 29.8787 40 32.0004 40C34.1222 40 36.157 39.1571 37.6573 37.6569C39.1576 36.1566 40.0004 34.1217 40.0004 32C40.0004 29.8783 39.1576 27.8434 37.6573 26.3431C36.157 24.8429 34.1222 24 32.0004 24Z" fill="black"/>
</svg>
