<svg width="46" height="46" viewBox="0 0 46 46" fill="none" xmlns="http://www.w3.org/2000/svg">
<path fill-rule="evenodd" clip-rule="evenodd" d="M5.66791e-07 3.82917C5.66791e-07 2.81361 0.40343 1.83965 1.12154 1.12154C1.83965 0.403434 2.81361 5.10482e-06 3.82917 5.10482e-06H42C42.5033 -0.000816878 43.0018 0.0976362 43.467 0.289727C43.9322 0.481819 44.3549 0.763776 44.7109 1.11946C45.067 1.47514 45.3494 1.89755 45.542 2.36253C45.7346 2.8275 45.8336 3.32589 45.8333 3.82917V42C45.8339 42.5034 45.7352 43.0019 45.5429 43.4671C45.3505 43.9323 45.0684 44.355 44.7125 44.7111C44.3567 45.0671 43.9341 45.3495 43.4691 45.5421C43.004 45.7346 42.5055 45.8336 42.0021 45.8333H3.82917C3.32614 45.8333 2.82804 45.7342 2.36333 45.5417C1.89862 45.3491 1.4764 45.0669 1.1208 44.7111C0.765203 44.3553 0.483192 43.9329 0.29088 43.4681C0.0985693 43.0033 -0.000273116 42.5051 5.66791e-07 42.0021V3.82917ZM18.1417 17.475H24.3479V20.5917C25.2438 18.8 27.5354 17.1875 30.9792 17.1875C37.5813 17.1875 39.1458 20.7563 39.1458 27.3042V39.4333H32.4646V28.7958C32.4646 25.0667 31.5688 22.9625 29.2938 22.9625C26.1375 22.9625 24.825 25.2313 24.825 28.7958V39.4333H18.1417V17.475ZM6.68334 39.1479H13.3667V17.1875H6.68334V39.1479ZM14.3229 10.025C14.3355 10.5972 14.2337 11.1662 14.0234 11.6986C13.8131 12.2309 13.4987 12.7159 13.0984 13.1251C12.6982 13.5342 12.2202 13.8593 11.6926 14.0813C11.165 14.3032 10.5984 14.4175 10.026 14.4175C9.45367 14.4175 8.88706 14.3032 8.35947 14.0813C7.83188 13.8593 7.35394 13.5342 6.95369 13.1251C6.55344 12.7159 6.23895 12.2309 6.02867 11.6986C5.81839 11.1662 5.71657 10.5972 5.72917 10.025C5.7539 8.90179 6.21747 7.8329 7.0206 7.04727C7.82372 6.26163 8.90255 5.82171 10.026 5.82171C11.1495 5.82171 12.2284 6.26163 13.0315 7.04727C13.8346 7.8329 14.2982 8.90179 14.3229 10.025Z" fill="black"/>
</svg>
