<svg width="29" height="18" viewBox="0 0 29 18" fill="none" xmlns="http://www.w3.org/2000/svg">
<path d="M28.3998 4.0535L15.9946 16.6323C15.8469 16.7816 15.686 16.8885 15.512 16.9529C15.338 17.0174 15.151 17.0507 14.951 17.0528C14.751 17.0559 14.5631 17.028 14.3871 16.969C14.2112 16.91 14.0471 16.8087 13.8948 16.665L1.06558 4.48017C0.710273 4.1427 0.528604 3.71678 0.520574 3.20239C0.512545 2.688 0.69314 2.24416 1.06236 1.87089C1.43158 1.49761 1.86616 1.30708 2.3661 1.29927C2.86604 1.29147 3.30635 1.46835 3.68704 1.82992L14.8793 12.46L25.7344 1.48577C26.079 1.13738 26.5077 0.959186 27.0207 0.951179C27.5336 0.943172 27.9799 1.11996 28.3596 1.48155C28.7403 1.84311 28.9345 2.26885 28.9421 2.75874C28.9498 3.24864 28.769 3.68022 28.3998 4.0535Z" fill="black"/>
</svg>
