<svg width="63" height="63" viewBox="0 0 63 63" fill="none" xmlns="http://www.w3.org/2000/svg">
<g clip-path="url(#clip0_87_94)">
<path d="M28.0886 54.0581C40.7328 55.7565 52.3598 46.8832 54.0583 34.2389C55.7567 21.5947 46.8834 9.96767 34.2391 8.26923C21.5949 6.57079 9.96787 15.4441 8.26943 28.0884C6.571 40.7326 15.4443 52.3596 28.0886 54.0581Z" stroke="black" stroke-width="4"/>
<path d="M8.75544 24.4715C12.4255 23.3054 15.0085 23.4213 16.5044 24.819C18.7484 26.9157 18.0941 34.1441 24.198 31.4673C30.3019 28.7905 22.4311 26.3085 24.8489 21.5679C27.2667 16.8274 32.4769 21.4619 33.7786 16.0884C34.6462 12.506 30.4868 10.5319 21.3001 10.1662" stroke="black" stroke-width="4"/>
<path d="M47.3609 14.6933C40.0524 19.5252 37.3046 22.6668 39.1174 24.1178C41.8364 26.2945 43.4281 23.958 46.9404 25.1687C50.4527 26.3794 49.0138 31.1673 47.1152 30.9123C45.2165 30.6572 35.5515 28.0842 35.276 33.8894C35.0003 39.6945 40.8009 41.3386 40.3702 44.5448C40.0831 46.6822 38.335 49.7777 35.1261 53.8312" stroke="black" stroke-width="4" stroke-linecap="round"/>
<path d="M9.30584 38.6302C10.4104 38.3152 11.2395 38.087 11.7933 37.9453C16.4361 36.7577 19.7602 36.7772 21.7652 38.004C25.3108 40.1735 23.4106 43.3377 24.4249 44.7337C25.4392 46.1297 28.4354 46.1657 28.1192 48.5197C27.9084 50.0891 27.1431 51.7911 25.8234 53.6257" stroke="black" stroke-width="4" stroke-linecap="round"/>
</g>
<defs>
<clipPath id="clip0_87_94">
<rect width="55.4401" height="55.4401" fill="white" transform="translate(7.38086) rotate(7.65046)"/>
</clipPath>
</defs>
</svg>
