<svg width="50" height="50" viewBox="0 0 50 50" fill="none" xmlns="http://www.w3.org/2000/svg">
<path d="M31.9271 33.9063C31.5451 33.4549 31.3542 32.9431 31.3542 32.3708C31.3542 31.7986 31.5451 31.3208 31.9271 30.9375L35.7813 27.0833H20.8333C20.2431 27.0833 19.7479 26.8833 19.3479 26.4833C18.9479 26.0833 18.7486 25.5889 18.75 25C18.75 24.4097 18.95 23.9146 19.35 23.5146C19.75 23.1146 20.2444 22.9153 20.8333 22.9167H35.7813L31.9271 19.0625C31.5104 18.6458 31.3021 18.1507 31.3021 17.5771C31.3021 17.0035 31.5104 16.509 31.9271 16.0938C32.309 15.6771 32.7868 15.4688 33.3604 15.4688C33.934 15.4688 34.4111 15.6597 34.7917 16.0417L42.2917 23.5417C42.5 23.75 42.6479 23.9757 42.7354 24.2188C42.8229 24.4618 42.866 24.7222 42.8646 25C42.8646 25.2778 42.8215 25.5382 42.7354 25.7813C42.6493 26.0243 42.5014 26.25 42.2917 26.4583L34.7917 33.9583C34.3403 34.4097 33.8451 34.6097 33.3063 34.5583C32.7674 34.5069 32.3076 34.2896 31.9271 33.9063ZM10.4167 43.75C9.27084 43.75 8.28959 43.3417 7.47292 42.525C6.65625 41.7083 6.24861 40.7278 6.25 39.5833V10.4167C6.25 9.27084 6.65834 8.28959 7.475 7.47292C8.29167 6.65625 9.27223 6.24861 10.4167 6.25H22.9167C23.5069 6.25 24.0021 6.45 24.4021 6.85C24.8021 7.25 25.0014 7.74445 25 8.33334C25 8.92361 24.8 9.41875 24.4 9.81875C24 10.2188 23.5056 10.4181 22.9167 10.4167H10.4167V39.5833H22.9167C23.5069 39.5833 24.0021 39.7833 24.4021 40.1833C24.8021 40.5833 25.0014 41.0778 25 41.6667C25 42.2569 24.8 42.7521 24.4 43.1521C24 43.5521 23.5056 43.7514 22.9167 43.75H10.4167Z" fill="#FF0000"/>
</svg>
