<svg width="44" height="44" viewBox="0 0 44 44" fill="none" xmlns="http://www.w3.org/2000/svg">
<path d="M21.9998 22C19.0665 22 16.5554 20.9556 14.4665 18.8667C12.3776 16.7778 11.3332 14.2667 11.3332 11.3334C11.3332 8.40002 12.3776 5.88891 14.4665 3.80002C16.5554 1.71113 19.0665 0.666687 21.9998 0.666687C24.9332 0.666687 27.4443 1.71113 29.5332 3.80002C31.6221 5.88891 32.6665 8.40002 32.6665 11.3334C32.6665 14.2667 31.6221 16.7778 29.5332 18.8667C27.4443 20.9556 24.9332 22 21.9998 22ZM5.99984 43.3334C4.53317 43.3334 3.27717 42.8107 2.23184 41.7654C1.18651 40.72 0.664731 39.4649 0.666508 38V35.8667C0.666508 34.3556 1.05584 32.9662 1.83451 31.6987C2.61318 30.4311 3.64606 29.4649 4.93317 28.8C7.68873 27.4222 10.4887 26.3885 13.3332 25.6987C16.1776 25.0089 19.0665 24.6649 21.9998 24.6667C24.9332 24.6667 27.8221 25.0116 30.6665 25.7014C33.511 26.3911 36.311 27.424 39.0665 28.8C40.3554 29.4667 41.3892 30.4338 42.1678 31.7014C42.9465 32.9689 43.335 34.3574 43.3332 35.8667V38C43.3332 39.4667 42.8105 40.7227 41.7652 41.768C40.7198 42.8134 39.4647 43.3351 37.9998 43.3334H5.99984Z" fill="black"/>
</svg>
