<svg width="64" height="64" viewBox="0 0 64 64" fill="none" xmlns="http://www.w3.org/2000/svg">
<path fill-rule="evenodd" clip-rule="evenodd" d="M32.0002 8.09068C31.8455 8.36001 31.6722 8.66934 31.4695 9.03468L31.2082 9.50401L31.1468 9.61068C30.9388 9.99468 30.5922 10.6293 30.0135 11.0693C29.4242 11.5173 28.7122 11.672 28.2988 11.7627L28.1815 11.7867L27.6748 11.9013C27.2055 12.008 26.8242 12.0933 26.5015 12.176C26.7122 12.4347 26.9868 12.76 27.3442 13.1787L27.6908 13.584L27.7708 13.6747C28.0588 14.008 28.5228 14.5413 28.7388 15.2347C28.9522 15.9173 28.8775 16.6213 28.8322 17.064C28.8275 17.1058 28.823 17.1475 28.8188 17.1893L28.7655 17.7307C28.7255 18.1393 28.6882 18.5482 28.6535 18.9573C28.9335 18.8347 29.2482 18.6907 29.6242 18.5173L30.1015 18.2987L30.2082 18.2453C30.5922 18.0667 31.2562 17.752 32.0002 17.752C32.7442 17.752 33.4082 18.0667 33.7922 18.248L33.8988 18.2987L34.3762 18.5173C34.7495 18.6907 35.0695 18.8373 35.3468 18.9573C35.3121 18.5482 35.2748 18.1393 35.2348 17.7307L35.1815 17.1893C35.1773 17.1475 35.1729 17.1058 35.1682 17.064C35.1228 16.6187 35.0482 15.9173 35.2615 15.2347C35.4748 14.5413 35.9415 14.008 36.2295 13.6747L36.3095 13.584L36.6562 13.1787C37.0135 12.76 37.2882 12.4347 37.4988 12.176C37.1762 12.096 36.7948 12.008 36.3255 11.9013L35.8188 11.7867L35.7015 11.76C35.2882 11.672 34.5762 11.5173 33.9868 11.0667C33.4082 10.6293 33.0615 9.99468 32.8535 9.61334L32.7922 9.50401L32.5308 9.03468C32.3282 8.66934 32.1575 8.36001 32.0002 8.09068ZM29.3708 4.80001C29.8295 4.20001 30.6615 3.33334 32.0002 3.33334C33.3388 3.33334 34.1708 4.20001 34.6295 4.80001C35.0695 5.37068 35.5095 6.16268 35.9628 6.97601L36.0242 7.08534L36.2855 7.55734L36.4375 7.82401L36.7015 7.88534L37.2082 8.00001L37.3362 8.02668C38.2082 8.22668 39.0775 8.42134 39.7442 8.68534C40.4802 8.97601 41.4775 9.53868 41.8642 10.7787C42.2428 11.992 41.7655 13.0213 41.3495 13.6853C40.9628 14.2987 40.3762 14.9813 39.7762 15.6827L39.6962 15.776L39.3495 16.184L39.1308 16.4427C39.1362 16.5387 39.1495 16.6507 39.1628 16.8027L39.2162 17.344L39.2268 17.4667C39.3175 18.4053 39.4055 19.312 39.3735 20.0373C39.3415 20.8 39.1602 21.952 38.1255 22.7333C37.0588 23.544 35.8855 23.368 35.1388 23.152C34.4508 22.9573 33.6375 22.5813 32.8188 22.2053L32.7042 22.152L32.2242 21.9307L32.0002 21.8267L31.7735 21.9333L31.2962 22.152L31.1788 22.2053C30.3628 22.5813 29.5522 22.9573 28.8615 23.152C28.1148 23.3653 26.9415 23.544 25.8748 22.7333C24.8428 21.952 24.6588 20.8 24.6268 20.04C24.5948 19.312 24.6802 18.4053 24.7735 17.4667L24.7842 17.344L24.8375 16.8027L24.8722 16.4427C24.7989 16.356 24.7252 16.2698 24.6508 16.184L24.3042 15.776L24.2242 15.6827C23.6242 14.9813 23.0375 14.296 22.6508 13.6827C22.2348 13.0213 21.7575 11.992 22.1362 10.776C22.5202 9.54134 23.5202 8.97601 24.2562 8.68534C24.9228 8.42134 25.7922 8.22668 26.6642 8.02934L26.7895 8.00268L27.2988 7.88534L27.5655 7.82401L27.7148 7.55734L27.9762 7.08534L28.0375 6.97601C28.4908 6.16268 28.9308 5.37068 29.3708 4.80001ZM29.2028 24.6667H34.7975C36.5708 24.6667 38.0988 24.6667 39.3228 24.832C40.6348 25.008 41.8908 25.4053 42.9095 26.424C43.9282 27.4427 44.3255 28.6987 44.5015 30.0107C44.6668 31.2347 44.6668 32.7627 44.6668 34.536V41.112C45.1042 40.9787 45.5548 40.8933 46.0108 40.832C47.2348 40.6667 48.7628 40.6667 50.5362 40.6667H50.7975C52.5708 40.6667 54.0988 40.6667 55.3228 40.832C56.6348 41.008 57.8908 41.4053 58.9095 42.424C59.9282 43.4427 60.3255 44.6987 60.5015 46.0107C60.6668 47.2347 60.6668 48.7627 60.6668 50.536V58.6667C60.6668 59.1971 60.4561 59.7058 60.081 60.0809C59.706 60.456 59.1973 60.6667 58.6668 60.6667C58.1364 60.6667 57.6277 60.456 57.2526 60.0809C56.8775 59.7058 56.6668 59.1971 56.6668 58.6667V50.6667C56.6668 48.7253 56.6615 47.4667 56.5388 46.544C56.4215 45.6773 56.2322 45.4053 56.0802 45.2533C55.9282 45.1013 55.6562 44.912 54.7895 44.7947C53.8642 44.672 52.6082 44.6667 50.6668 44.6667C48.7255 44.6667 47.4668 44.672 46.5442 44.7947C45.6775 44.912 45.4055 45.1013 45.2535 45.2533C45.1015 45.4053 44.9122 45.6773 44.7948 46.544C44.6722 47.4693 44.6668 48.7253 44.6668 50.6667V58.6667C44.6668 59.1971 44.4561 59.7058 44.081 60.0809C43.706 60.456 43.1973 60.6667 42.6668 60.6667C42.1364 60.6667 41.6277 60.456 41.2526 60.0809C40.8775 59.7058 40.6668 59.1971 40.6668 58.6667V34.6667C40.6668 32.7253 40.6615 31.4667 40.5388 30.544C40.4215 29.6773 40.2322 29.4053 40.0802 29.2533C39.9282 29.1013 39.6562 28.912 38.7895 28.7947C37.8642 28.672 36.6082 28.6667 34.6668 28.6667H29.3335C27.3922 28.6667 26.1335 28.672 25.2108 28.7947C24.3442 28.912 24.0722 29.1013 23.9202 29.2533C23.7682 29.4053 23.5788 29.6773 23.4615 30.544C23.3388 31.4693 23.3335 32.7253 23.3335 34.6667V58.6667C23.3335 59.1971 23.1228 59.7058 22.7477 60.0809C22.3726 60.456 21.8639 60.6667 21.3335 60.6667C20.8031 60.6667 20.2944 60.456 19.9193 60.0809C19.5442 59.7058 19.3335 59.1971 19.3335 58.6667C19.3335 56.7253 19.3282 55.4667 19.2055 54.544C19.0882 53.6773 18.8988 53.4053 18.7468 53.2533C18.5948 53.1013 18.3228 52.912 17.4562 52.7947C16.5308 52.672 15.2748 52.6667 13.3335 52.6667C11.3922 52.6667 10.1335 52.672 9.21083 52.7947C8.34416 52.912 8.07216 53.1013 7.92016 53.2533C7.76816 53.4053 7.57883 53.6773 7.4615 54.544C7.33883 55.4693 7.3335 56.7253 7.3335 58.6667C7.3335 59.1971 7.12278 59.7058 6.74771 60.0809C6.37264 60.456 5.86393 60.6667 5.3335 60.6667C4.80306 60.6667 4.29436 60.456 3.91928 60.0809C3.54421 59.7058 3.3335 59.1971 3.3335 58.6667V58.5333C3.3335 56.7627 3.3335 55.2347 3.49883 54.0107C3.67483 52.6987 4.07216 51.4427 5.09083 50.424C6.1095 49.4053 7.36816 49.008 8.6775 48.832C9.9015 48.6667 11.4295 48.6667 13.2028 48.6667H13.4642C15.2375 48.6667 16.7655 48.6667 17.9895 48.832C18.4455 48.8933 18.8962 48.9813 19.3335 49.112V34.536C19.3335 32.7627 19.3335 31.2347 19.4988 30.0107C19.6748 28.6987 20.0722 27.4427 21.0908 26.424C22.1095 25.4053 23.3682 25.008 24.6775 24.832C25.9015 24.6667 27.4295 24.6667 29.2028 24.6667Z" fill="black"/>
</svg>
