<svg width="44" height="44" viewBox="0 0 44 44" fill="none" xmlns="http://www.w3.org/2000/svg">
<path d="M22 0C16.0233 0 15.2772 0.0275 12.9305 0.132C10.5875 0.242 8.9925 0.6105 7.59 1.155C6.1435 1.716 4.91517 2.4695 3.69233 3.69233C2.4695 4.91517 1.71417 6.14167 1.155 7.59C0.6105 8.9925 0.240167 10.5875 0.132 12.9305C0.022 15.2772 0 16.0233 0 22C0 27.9767 0.0275 28.7228 0.132 31.0695C0.242 33.4107 0.6105 35.0075 1.155 36.41C1.70737 37.8782 2.57326 39.2084 3.69233 40.3077C4.79101 41.4275 6.12131 42.2935 7.59 42.845C8.99433 43.3877 10.5893 43.7598 12.9305 43.868C15.2772 43.978 16.0233 44 22 44C27.9767 44 28.7228 43.9725 31.0695 43.868C33.4107 43.758 35.0075 43.3877 36.41 42.845C37.8779 42.292 39.2079 41.4261 40.3077 40.3077C41.4279 39.2093 42.294 37.8789 42.845 36.41C43.3877 35.0075 43.7598 33.4107 43.868 31.0695C43.978 28.7228 44 27.9767 44 22C44 16.0233 43.9725 15.2772 43.868 12.9305C43.758 10.5893 43.3877 8.99067 42.845 7.59C42.2924 6.1219 41.4265 4.79183 40.3077 3.69233C39.2098 2.57151 37.8793 1.70535 36.41 1.155C35.0075 0.6105 33.4107 0.240167 31.0695 0.132C28.7228 0.022 27.9767 0 22 0ZM22 3.96C27.8722 3.96 28.5725 3.98933 30.8917 4.09017C33.0367 4.191 34.2008 4.54667 34.9745 4.851C36.0048 5.24883 36.7345 5.7255 37.5082 6.49367C38.2763 7.26367 38.753 7.99517 39.1508 9.0255C39.4515 9.79917 39.8108 10.9633 39.908 13.1083C40.0125 15.4293 40.0363 16.126 40.0363 22C40.0363 27.874 40.0088 28.5725 39.9007 30.8917C39.7888 33.0367 39.4313 34.2008 39.1288 34.9745C38.771 35.9292 38.2084 36.794 37.4807 37.5082C36.7696 38.2365 35.9054 38.7977 34.9507 39.1508C34.1807 39.4515 32.9982 39.8108 30.8532 39.908C28.5175 40.0125 27.83 40.0363 21.945 40.0363C16.0582 40.0363 15.3707 40.0088 13.0368 39.9007C10.89 39.7888 9.7075 39.4313 8.9375 39.1288C7.98216 38.7754 7.11824 38.2122 6.40933 37.4807C5.6734 36.7744 5.10897 35.9089 4.75933 34.9507C4.45683 34.1807 4.10117 32.9982 3.98933 30.8532C3.90683 28.5432 3.8775 27.83 3.8775 21.9725C3.8775 16.1132 3.90683 15.3982 3.98933 13.0607C4.10117 10.9157 4.45683 9.735 4.75933 8.965C5.14433 7.92 5.6375 7.205 6.40933 6.43317C7.1775 5.665 7.89433 5.17 8.9375 4.78683C9.7075 4.4825 10.8643 4.125 13.0093 4.015C15.3468 3.9325 16.0343 3.905 21.9175 3.905L22 3.96ZM22 10.703C20.5165 10.703 19.0474 10.9952 17.6768 11.5629C16.3062 12.1307 15.0608 12.9628 14.0118 14.0118C12.9628 15.0608 12.1307 16.3062 11.5629 17.6768C10.9952 19.0474 10.703 20.5165 10.703 22C10.703 23.4835 10.9952 24.9526 11.5629 26.3232C12.1307 27.6938 12.9628 28.9392 14.0118 29.9882C15.0608 31.0372 16.3062 31.8693 17.6768 32.4371C19.0474 33.0048 20.5165 33.297 22 33.297C24.9962 33.297 27.8696 32.1068 29.9882 29.9882C32.1068 27.8696 33.297 24.9962 33.297 22C33.297 19.0038 32.1068 16.1304 29.9882 14.0118C27.8696 11.8932 24.9962 10.703 22 10.703ZM22 29.3333C17.9483 29.3333 14.6667 26.0517 14.6667 22C14.6667 17.9483 17.9483 14.6667 22 14.6667C26.0517 14.6667 29.3333 17.9483 29.3333 22C29.3333 26.0517 26.0517 29.3333 22 29.3333ZM36.3843 10.2575C36.3589 10.9406 36.0696 11.5873 35.5773 12.0616C35.085 12.5359 34.428 12.8009 33.7443 12.8009C33.0607 12.8009 32.4037 12.5359 31.9114 12.0616C31.4191 11.5873 31.1298 10.9406 31.1043 10.2575C31.1043 9.55733 31.3825 8.88583 31.8776 8.39074C32.3727 7.89564 33.0442 7.6175 33.7443 7.6175C34.4445 7.6175 35.116 7.89564 35.6111 8.39074C36.1062 8.88583 36.3843 9.55733 36.3843 10.2575Z" fill="black"/>
</svg>
