<svg width="57" height="57" viewBox="0 0 57 57" fill="none" xmlns="http://www.w3.org/2000/svg">
<path d="M25.8282 45.8375L10.1532 30.1625C9.91566 29.925 9.74704 29.6677 9.64729 29.3906C9.54754 29.1136 9.49845 28.8167 9.50004 28.5C9.50004 28.1834 9.54991 27.8865 9.64966 27.6094C9.74941 27.3323 9.91725 27.075 10.1532 26.8375L25.8282 11.1625C26.2636 10.7271 26.8082 10.4999 27.4622 10.4809C28.1161 10.4619 28.6797 10.6891 29.1532 11.1625C29.6282 11.5979 29.876 12.1426 29.8965 12.7965C29.9171 13.4504 29.6891 14.0141 29.2125 14.4875L17.575 26.125H44.1157C44.7886 26.125 45.353 26.353 45.809 26.809C46.265 27.265 46.4922 27.8287 46.4907 28.5C46.4907 29.1729 46.2635 29.7374 45.809 30.1934C45.3546 30.6494 44.7902 30.8766 44.1157 30.875H17.575L29.2125 42.5125C29.648 42.9479 29.876 43.5021 29.8965 44.175C29.9171 44.8479 29.6891 45.4021 29.2125 45.8375C28.7771 46.3125 28.223 46.55 27.55 46.55C26.8771 46.55 26.3032 46.3125 25.8282 45.8375Z" fill="black"/>
</svg>
